<?xml version="1.0" encoding="utf-8"?>
<!-- Generator: Adobe Illustrator 16.0.0, SVG Export Plug-In . SVG Version: 6.00 Build 0)  -->
<!DOCTYPE svg PUBLIC "-//W3C//DTD SVG 1.1//EN" "http://www.w3.org/Graphics/SVG/1.1/DTD/svg11.dtd">
<svg version="1.1" id="Layer_1" xmlns="http://www.w3.org/2000/svg" xmlns:xlink="http://www.w3.org/1999/xlink" x="0px" y="0px"
	 width="566.93px" height="566.93px" viewBox="0 0 566.93 566.93" enable-background="new 0 0 566.93 566.93" xml:space="preserve">
<g id="Layer_2">
</g>
<g id="Layer_1_1_">
	<path fill="#FFFFFF" d="M424.104,283.465c0,38.836-15.741,73.996-41.192,99.446l-99.446,91.192l-99.443-91.189
		c-25.453-25.451-41.194-60.611-41.194-99.449c0-77.673,62.966-140.639,140.639-140.639
		C361.138,142.826,424.104,205.792,424.104,283.465z M283.465,151.93c-72.646,0-131.535,58.891-131.535,131.535
		C151.93,356.109,210.82,415,283.465,415C356.11,415,415,356.109,415,283.465C415,210.821,356.11,151.93,283.465,151.93z"/>
	<g>
		<path fill="#FFFFFF" d="M367.287,246.604c-1.219,0-2.206-0.988-2.206-2.205c0-1.221,0.987-2.207,2.206-2.207
			s2.206-0.987,2.206-2.205v-3.023l-82.854-30.419h-0.221c-1.86-0.93-4.05-0.93-5.912,0h-0.221l-82.854,30.419v3.045
			c0,1.218,0.988,2.207,2.206,2.207c1.219,0,2.206,0.986,2.206,2.205c0,1.217-0.987,2.206-2.206,2.206
			c-3.654,0-6.617-2.964-6.617-6.618v-3.066c0-1.675,0.949-3.203,2.449-3.949h0.221l82.963-30.552c3.043-1.479,6.598-1.479,9.641,0
			l82.941,30.354h0.221c1.565,0.775,2.526,2.401,2.449,4.147v3.045C373.905,243.642,370.942,246.604,367.287,246.604z"/>
		<path fill="#FFFFFF" d="M267.117,269.502H226.11c-1.219,0-2.207-0.988-2.207-2.207c0-1.218,0.988-2.205,2.207-2.205h41.008
			c1.218,0,2.205,0.987,2.205,2.205C269.323,268.514,268.335,269.502,267.117,269.502z"/>
		<path fill="#FFFFFF" d="M267.117,279.251H226.11c-1.219,0-2.207-0.986-2.207-2.205c0-1.219,0.988-2.207,2.207-2.207h41.008
			c1.218,0,2.205,0.988,2.205,2.207C269.323,278.265,268.335,279.251,267.117,279.251z"/>
		<path fill="#FFFFFF" d="M267.117,289.002H226.11c-1.219,0-2.207-0.986-2.207-2.207c0-1.218,0.988-2.206,2.207-2.206h41.008
			c1.218,0,2.205,0.988,2.205,2.206C269.323,288.016,268.335,289.002,267.117,289.002z"/>
		<path fill="#FFFFFF" d="M267.117,298.752H226.11c-1.219,0-2.207-0.986-2.207-2.205c0-1.218,0.988-2.208,2.207-2.208h41.008
			c1.218,0,2.205,0.99,2.205,2.208C269.323,297.766,268.335,298.752,267.117,298.752z"/>
		<path fill="#FFFFFF" d="M267.117,308.501H226.11c-1.219,0-2.207-0.987-2.207-2.205s0.988-2.205,2.207-2.205h41.008
			c1.218,0,2.205,0.987,2.205,2.205S268.335,308.501,267.117,308.501z"/>
		<path fill="#FFFFFF" d="M253.021,318.253H226.11c-1.219,0-2.207-0.989-2.207-2.207s0.988-2.206,2.207-2.206h26.912
			c1.219,0,2.206,0.988,2.206,2.206S254.239,318.253,253.021,318.253z"/>
		<path fill="#FFFFFF" d="M340.133,269.502h-40.986c-1.218,0-2.206-0.988-2.206-2.207c0-1.218,0.987-2.205,2.206-2.205h40.986
			c1.218,0,2.206,0.987,2.206,2.205C342.339,268.514,341.351,269.502,340.133,269.502z"/>
		<path fill="#FFFFFF" d="M340.133,279.251h-40.986c-1.218,0-2.206-0.986-2.206-2.205c0-1.219,0.987-2.207,2.206-2.207h40.986
			c1.218,0,2.206,0.988,2.206,2.207C342.339,278.265,341.351,279.251,340.133,279.251z"/>
		<path fill="#FFFFFF" d="M340.133,289.002h-40.986c-1.218,0-2.206-0.986-2.206-2.207c0-1.218,0.987-2.206,2.206-2.206h40.986
			c1.218,0,2.206,0.988,2.206,2.206C342.339,288.016,341.351,289.002,340.133,289.002z"/>
		<path fill="#FFFFFF" d="M340.133,298.752h-40.986c-1.218,0-2.206-0.986-2.206-2.205c0-1.218,0.987-2.208,2.206-2.208h40.986
			c1.218,0,2.206,0.99,2.206,2.208C342.339,297.766,341.351,298.752,340.133,298.752z"/>
		<path fill="#FFFFFF" d="M340.133,308.501h-40.986c-1.218,0-2.206-0.987-2.206-2.205s0.987-2.205,2.206-2.205h40.986
			c1.218,0,2.206,0.987,2.206,2.205S341.351,308.501,340.133,308.501z"/>
		<path fill="#FFFFFF" d="M326.015,318.253h-26.868c-1.218,0-2.206-0.989-2.206-2.207s0.987-2.206,2.206-2.206h26.868
			c1.219,0,2.206,0.988,2.206,2.206S327.233,318.253,326.015,318.253z"/>
		<path fill="#FFFFFF" d="M283.133,351.316c-1.219,0-2.207-0.986-2.207-2.205V245.192c0-1.219,0.988-2.205,2.207-2.205
			c1.218,0,2.206,0.986,2.206,2.205v103.919C285.338,350.33,284.351,351.316,283.133,351.316z"/>
		<path fill="#FFFFFF" d="M283.133,351.316c-1.219,0.147-2.325-0.723-2.472-1.94s0.723-2.324,1.94-2.469
			c22.985-5.646,44.118-5.89,70.391-0.794v-99.399c-24.109-9.177-44.802-9-69.066,0.553c-1.152,0.395-2.407-0.219-2.803-1.37
			c-0.371-1.083,0.146-2.271,1.192-2.734c25.169-9.903,47.471-10.036,72.596-0.439c1.499,0.587,2.486,2.03,2.493,3.638V346.84
			c-0.006,1.105-0.498,2.155-1.345,2.869c-0.963,0.781-2.227,1.089-3.442,0.836c-25.875-5.049-46.499-4.831-68.955,0.662
			L283.133,351.316z"/>
		<path fill="#FFFFFF" d="M283.133,351.316h-0.508c-22.609-5.608-46.22-5.842-68.936-0.683c-1.229,0.228-2.493-0.112-3.44-0.926
			c-0.896-0.72-1.416-1.81-1.412-2.955V246.36c0.006-1.607,0.994-3.051,2.492-3.638c25.038-9.597,47.428-9.464,72.597,0.418
			c1.114,0.493,1.617,1.798,1.122,2.911c-0.464,1.045-1.65,1.564-2.732,1.191c-24.265-9.551-44.956-9.706-69.066-0.551v99.485
			c23.208-5.195,47.309-4.917,70.39,0.816c1.171,0.338,1.848,1.559,1.511,2.73C284.888,350.635,284.077,351.273,283.133,351.316z"/>
		<path fill="#FFFFFF" d="M283.133,358.023h-75.42c-3.996,0-7.236-3.24-7.236-7.235v-97.214c0-2.144,1.739-3.882,3.883-3.882h5.097
			c1.218,0,2.206,0.988,2.206,2.205c0,1.219-0.987,2.207-2.206,2.207h-4.566v96.684c0,1.56,1.264,2.823,2.823,2.823h75.42
			c1.218,0,2.206,0.988,2.206,2.209C285.338,357.038,284.351,358.023,283.133,358.023z"/>
		<path fill="#FFFFFF" d="M358.463,358.023h-75.331c-1.219,0-2.207-0.985-2.207-2.203c0-1.221,0.988-2.209,2.207-2.209h75.331
			c1.56,0,2.823-1.264,2.823-2.823v-96.684h-4.479c-1.218,0-2.205-0.988-2.205-2.207c0-1.217,0.987-2.205,2.205-2.205h5.096
			c2.145,0,3.882,1.738,3.882,3.882l0,0v97.214c0.001,3.995-3.237,7.235-7.233,7.235
			C358.522,358.023,358.493,358.023,358.463,358.023z"/>
		<path fill="#FFFFFF" d="M283.133,355.82h5.492c0,3.044-2.47,5.514-5.516,5.514c-3.045,0-5.515-2.47-5.515-5.514h5.493H283.133z"/>
	</g>
</g>
</svg>
