<?xml version="1.0" encoding="utf-8"?>
<!-- Generator: Adobe Illustrator 16.0.0, SVG Export Plug-In . SVG Version: 6.00 Build 0)  -->
<!DOCTYPE svg PUBLIC "-//W3C//DTD SVG 1.1//EN" "http://www.w3.org/Graphics/SVG/1.1/DTD/svg11.dtd">
<svg version="1.1" id="Layer_1" xmlns="http://www.w3.org/2000/svg" xmlns:xlink="http://www.w3.org/1999/xlink" x="0px" y="0px"
	 width="350px" height="350px" viewBox="0 0 350 350" enable-background="new 0 0 350 350" xml:space="preserve">
<g id="Layer_1_1_">
</g>
<g id="Layer_2">
	<g>
		<path fill="#FFFFFF" d="M191.799,314.984c-5.916,2.367-11.977,3.031-18.362,2.408c-4.131-0.404-8.101-1.132-11.98-2.479
			c-5.592-1.938-10.684-4.688-14.009-9.811c-2.327-3.58-4.05-7.295-4.023-11.863c0.19-31.42,0.207-62.842,0.217-94.264
			c0-2.488,0.483-4.662,1.837-6.787c2.37-3.725,4.581-7.556,6.724-11.416c0.652-1.176,0.918-2.582,1.25-3.91
			c0.166-0.664,0.096-1.39,0.109-2.088c0.197-10.003,0.395-20.007,0.582-30.012c0.044-2.378-0.048-2.484-2.535-2.071
			c-6.634,1.104-13.263,2.239-19.887,3.396c-6.544,1.144-13.061,2.462-19.633,3.412c-1.882,0.271-2.019,1.002-2.031,2.492
			c-0.045,5.61-0.632,11.165-2.766,16.406c-5.79,14.228-15.958,23.463-31.189,26.509c-22.001,4.399-43.445-9.533-48.592-31.368
			c-2.954-12.529-1.297-24.398,5.713-35.209c6.958-10.73,16.892-17.082,29.737-18.59c10.865-1.275,20.826,1.069,29.675,7.581
			c7.406,5.452,12.52,12.608,15.364,21.372c0.805,2.48,0.829,2.51,3.37,1.777c16.357-4.725,32.71-9.465,49.064-14.2
			c0.446-0.128,0.987-0.147,1.313-0.42c0.479-0.401,1.076-0.963,1.123-1.501c0.044-0.516-0.417-1.273-0.882-1.6
			c-1.202-0.84-2.562-1.447-3.801-2.24c-8.247-5.282-13.314-12.827-14.646-22.447c-2.383-17.198,5.453-31.031,20.771-37.302
			c4.139-1.694,8.56-2.063,12.993-2.096c1.314-0.009,2.289-0.06,2.862-1.607c0.547-1.476,1.981-1.938,3.5-1.538
			c1.453,0.384,2.158,1.432,2.269,2.887c0.053,0.694,0.021,1.395,0.021,2.094c0.001,17.456-0.021,34.913,0.028,52.369
			c0.004,2.073,0.384,4.145,0.589,6.216c-0.429-0.904-0.896-1.794-1.281-2.717c-1.349-3.217-2.704-6.429-3.979-9.673
			c-0.494-1.255-1.232-1.841-2.611-1.771c-1.624,0.083-3.256,0.032-4.885,0.007c-0.889-0.015-1.973,0.248-2.102-1.183
			c-0.002-0.031-0.627-0.103-0.669-0.018c-0.296,0.627-0.538,1.282-0.758,1.942c-1.988,5.952-4.03,11.887-5.918,17.87
			c-0.648,2.058-1.778,3.192-3.883,3.798c-11.696,3.355-23.354,6.84-35.032,10.259c-4.754,1.392-9.512,2.777-14.296,4.06
			c-1.276,0.343-1.826,0.718-1.562,2.188c0.282,1.574,1.154,1.051,2.027,0.896c3.65-0.649,7.303-1.283,10.952-1.941
			c16.082-2.897,32.156-5.834,48.246-8.678c3.028-0.535,6.026-1.401,9.2-0.904c5.125,0.802,10.272,1.462,15.418,2.139
			c10.289,1.354,20.584,2.686,30.879,4.017c5.304,0.685,10.606,1.361,15.914,2.01c0.83,0.102,1.779,0.233,1.982-1.006
			c0.186-1.132-0.277-1.778-1.415-1.963c-0.382-0.062-0.747-0.204-1.127-0.286c-10.227-2.205-20.458-4.391-30.681-6.615
			c-5.299-1.153-10.612-2.26-15.865-3.601c-4.595-1.175-7.35-4.347-8.587-8.879c0.269,0.371,0.623,0.708,0.792,1.12
			c1.809,4.397,5.424,6.37,9.795,7.305c15.125,3.235,30.254,6.455,45.383,9.676c2.065,0.439,2.424,0.271,2.777-1.619
			c1.768-9.418,7.758-15.68,15.527-20.474c4.086-2.521,8.475-4.519,13.162-5.768c12.393-3.297,24.262-2.296,35.448,4.291
			c10.835,6.38,17.701,15.868,20.11,28.039c1.943,9.808,0.918,19.629-3.634,28.814c-0.516,1.04-1.014,2.097-1.423,3.182
			c-2.33,6.156-7.024,10.371-12.062,14.136c-4.229,3.164-8.996,5.396-14.316,6.343c-11.716,2.081-22.619,0.412-32.552-6.467
			c-7.95-5.509-14.319-12.338-17.835-21.458c-2.062-5.347-3.576-10.862-3.406-16.711c0.08-2.761-0.019-2.811-2.701-3.144
			c-10.067-1.25-20.141-2.46-30.209-3.701c-3.149-0.388-6.293-0.834-9.44-1.251c-1.804-0.238-2.103-0.063-2.063,1.761
			c0.074,3.796,0.289,7.586,0.396,11.381c0.075,2.636,0.035,5.274,0.105,7.911c0.131,4.878,0.271,9.757,0.494,14.632
			c0.043,0.888,0.396,1.804,0.776,2.627c2.506,5.403,5.106,10.762,7.562,16.188c0.553,1.221,0.908,2.646,0.916,3.98
			c0.09,16.988,0.062,33.979,0.141,50.967c0.062,13.881,0.32,27.764,0.299,41.645c-0.008,5.455-2.025,10.354-5.993,14.16
			C202.383,308.721,198.868,311.398,191.799,314.984 M191.738,314.688c2.009-0.961,8.02-4.768,9.343-5.822
			c3.626-2.896,6.049-6.617,7.562-10.95c0.354-1.008,0.516-2.116,0.566-3.188c0.102-2.091,0.081-4.186,0.082-6.279
			c0.005-26.53,0.006-53.059,0-79.588c0-1.474,0.027-2.957-0.141-4.414c-0.141-1.226-0.74-1.414-1.73-0.676
			c-1.117,0.832-2.165,1.758-3.296,2.57c-5.847,4.206-12.575,5.773-19.576,6.645c-6.465,0.803-12.853,0.347-19.17-1.004
			c-6.099-1.302-12.026-3.112-16.692-7.619c-0.223-0.215-0.447-0.467-0.72-0.577c-0.395-0.16-0.897-0.54-1.258-0.302
			c-0.31,0.205-0.454,78.312-0.858,92.465c-0.101,3.578,0.725,6.541,3.014,9.299c4.807,5.785,11.027,9.175,18.311,10.686
			c7.003,1.45,13.69,1.703,20.665,0.036C189.04,315.682,190.312,315.328,191.738,314.688 M108.954,152.784
			c0.094-5.141-0.862-10.062-2.549-14.855c-9.125-25.926-40.456-35.803-62.183-19.607c-18.952,14.128-22.689,41.593-8.206,60.301
			c13.422,17.337,37.305,21.215,55.049,8.689C102.916,178.945,108.528,167.148,108.954,152.784z M177.618,184.082
			c0.008-0.104,0.016-0.205,0.022-0.309c1.938,0,3.887,0.142,5.81-0.027c5.147-0.449,10.065-1.627,14.295-4.869
			c1.22-0.934,1.86-1.965,1.765-3.526c-0.185-3.015-0.306-6.032-0.406-9.051c-0.195-5.727-0.347-11.455-0.545-17.182
			c-0.039-1.16-0.222-2.314-0.317-3.472c-0.089-1.039-0.603-1.335-1.568-0.988c-1.604,0.575-3.19,1.207-4.827,1.672
			c-9.449,2.681-18.973,2.378-28.525,0.604c-2.281-0.424-2.582-0.183-2.7,2.104c-0.362,7.026-0.667,14.058-1.103,21.081
			c-0.167,2.693-0.339,5.441-1.765,7.863c-0.638,1.084-0.262,1.851,0.72,2.256c2.278,0.943,4.541,2.137,6.929,2.555
			C169.425,183.498,173.541,183.682,177.618,184.082z M179.327,211.932c4.073-0.13,9.646-0.701,15.114-2.399
			c5.277-1.638,9.611-4.5,13.254-8.576c0.863-0.966,0.771-1.946,0.193-3.067c-0.589-1.145-1.429-3.005-1.863-3.899
			c-2.233-4.591-3.723-7.8-5.819-12.453c-0.519-1.149-1.589-1.134-2.905-0.397c-5.051,2.812-10.512,4.002-16.279,3.896
			c-3.252-0.062-6.524,0.165-9.754-0.123c-3.678-0.326-7.341-0.964-10.965-1.693c-2.255-0.452-4.128-1.606-5.371,0.414
			c-2.322,3.774-3.958,5.878-6.75,10.185c-1.747,2.693-2.083,5.485,0.189,7.748c1.792,1.785,3.799,3.453,5.968,4.74
			C161.528,210.575,169.501,211.885,179.327,211.932z M179.699,74.188c-0.059,0-0.114,0-0.172,0c0-3.875,0.041-7.751-0.016-11.625
			c-0.033-2.387-0.308-2.6-2.748-2.647c-0.931-0.02-1.869-0.031-2.789,0.074c-12.857,1.474-22.286,7.877-27.254,19.921
			c-5.042,12.224-2.783,23.549,5.481,33.727c2.625,3.232,5.983,5.597,9.667,7.515c1.096,0.572,1.851,0.588,2.291-0.777
			c1.114-3.466,2.249-6.925,3.44-10.364c0.493-1.428-0.083-1.809-1.386-1.77c-1.161,0.033-2.326,0.028-3.488-0.015
			c-3.177-0.118-5.366-2.244-5.398-5.208c-0.033-2.979,2.131-5.153,5.314-5.271c1.548-0.059,3.101-0.013,4.65-0.014
			c4.454-0.001,4.454-0.001,4.504-4.374c0.047-4.194,2.195-6.291,6.259-5.741c1.612,0.218,1.653-0.431,1.647-1.571
			C179.688,82.094,179.699,78.142,179.699,74.188z M245.518,145.981c-0.184,9.255,0.664,11.852,3.359,19.176
			c3.643,9.899,10.667,17.079,19.538,22.573c8.681,5.375,18.044,7.041,28.071,5.359c6.189-1.039,11.716-3.688,16.504-7.568
			c4.01-3.248,8.018-6.728,9.834-11.854c0.877-2.472,1.541-5.022,2.226-7.557c1.435-5.307,1.817-10.699,0.971-16.134
			c-1.276-8.193-4.385-15.612-9.516-22.173c-2.977-3.808-6.126-7.44-10.251-10.034c-6.253-3.933-12.979-6.678-20.434-7.069
			c-3.463-0.181-7.021-0.255-10.407,0.339c-3.312,0.581-6.567,1.839-9.668,3.21c-8.772,3.881-15.658,9.734-18.565,19.279
			C245.889,137.767,245.165,142.12,245.518,145.981z M242.314,145.2c-0.012,0,0.34,0.094,0.601-0.021
			c0.438-0.193,1.17-0.554,1.147-0.783c-0.051-0.509-0.416-1.052-0.797-1.439c-0.229-0.23-0.727-0.218-1.107-0.267
			c-10.828-1.402-21.658-2.796-32.486-4.194c-9.292-1.201-18.581-2.435-27.879-3.587c-1.896-0.234-3.882-0.482-5.742-0.19
			c-7.265,1.143-14.5,2.473-21.737,3.782c-13.628,2.468-27.251,4.963-40.873,7.469c-1.051,0.193-2.088,0.504-3.096,0.864
			c-0.259,0.094-0.554,0.605-0.513,0.877c0.04,0.269,0.458,0.629,0.755,0.678c0.602,0.1,1.243,0.084,1.85-0.004
			c1.985-0.29,3.966-0.611,5.941-0.961c17.152-3.042,34.297-6.126,51.46-9.104c3.108-0.539,6.331-1.117,9.432-0.854
			c7.17,0.608,14.295,1.727,21.44,2.628c8.377,1.057,16.752,2.118,25.133,3.152C231.225,143.908,236.609,144.524,242.314,145.2z
			 M177.055,147.075c1.834-0.15,3.842-0.278,5.84-0.483c4.881-0.505,9.592-1.635,13.938-3.997c0.446-0.242,0.79-0.677,1.183-1.021
			c-0.539-0.219-1.062-0.555-1.617-0.635c-3.445-0.497-6.887-1.065-10.352-1.36c-4.053-0.346-8.031-1.554-12.204-0.636
			c-5.057,1.113-10.187,1.902-15.281,2.856c-0.405,0.076-0.774,0.34-1.16,0.517c0.337,0.281,0.65,0.606,1.022,0.834
			c0.392,0.241,0.839,0.391,1.263,0.577C165.167,146.142,171.01,146.671,177.055,147.075z M184.798,84.574c-0.024,0-0.051,0-0.077,0
			c0-8.378,0.02-16.756-0.013-25.134c-0.007-1.812-0.7-2.719-1.849-2.752c-1.182-0.035-1.844,0.864-1.943,2.652
			c-0.014,0.232-0.009,0.466-0.009,0.698c-0.017,9.153-0.033,18.308-0.038,27.461c-0.001,0.694,0.054,1.394,0.141,2.082
			c0.252,1.977,0.652,3.941,0.771,5.924c0.142,2.397,0.17,4.814,0.032,7.211c-0.153,2.721,1.234,4.913,2.154,7.273
			c0.072,0.183,0.309,0.302,0.469,0.451c0.119-0.244,0.301-0.479,0.342-0.735c0.062-0.379,0.021-0.772,0.021-1.162
			C184.798,100.556,184.798,92.564,184.798,84.574z M282.716,108.976c25.547-0.276,47.021,24.506,45.122,49.931
			C333.971,135.359,315.03,105.98,282.716,108.976z M172.498,97.427c0.016,0,0.032,0,0.047,0c0,1.622,0.006,3.244-0.001,4.865
			c-0.003,0.948,0.436,1.433,1.401,1.419c1.854-0.026,3.708-0.045,5.56-0.067c0.927-0.012,1.444-0.448,1.451-1.407
			c0.022-3.089,0.099-6.179,0.026-9.266c-0.02-0.807-0.422-1.642-0.791-2.394c-0.692-1.414-1.838-2.341-3.465-2.305
			c-1.599,0.037-2.807,0.93-3.472,2.339c-0.415,0.883-0.638,1.901-0.728,2.879C172.407,94.791,172.498,96.113,172.498,97.427z
			 M164.668,107.402c0,0.023,0,0.047,0,0.07c0.386,0,0.772,0.003,1.159-0.001c2.533-0.028,2.51-0.038,3.463-2.439
			c0.623-1.571,1.311-3.117,2.001-4.66c0.529-1.184,0.285-1.75-1.065-1.798c-2.7-0.096-5.41-0.164-8.107-0.039
			c-2.332,0.108-3.969,2.006-4.022,4.306c-0.054,2.286,1.511,4.218,3.796,4.54C162.8,107.508,163.742,107.402,164.668,107.402z"/>
		<path fill="#FFFFFF" d="M177.001,131c2.358-0.386,4.726-0.737,7.073-1.178c0.749-0.141,1.521-0.417,2.156-0.824
			c0.605-0.389,1.434-1.015,1.457-1.563c0.021-0.527-0.771-1.296-1.381-1.592c-1.173-0.568-2.482-0.842-3.705-1.318
			c-0.336-0.131-0.561-0.549-0.836-0.835c0.344-0.108,0.741-0.389,1.017-0.298c1.75,0.578,3.604,1.016,5.169,1.933
			c1.768,1.035,1.713,3.031,0.009,4.205c-0.995,0.686-2.188,1.19-3.364,1.493c-5.046,1.301-10.125,1.3-15.167-0.006
			c-1.177-0.304-2.369-0.811-3.364-1.5c-1.697-1.179-1.736-3.168,0.038-4.205c1.567-0.918,3.389-1.505,5.172-1.916
			c1.379-0.319,1.895-0.81,1.983-2.268c0.081-1.346,0.632-2.691,1.14-3.974c0.418-1.058,1.248-1.708,2.505-1.745
			c1.352-0.04,2.254,0.599,2.759,1.741c1.177,2.667,1.585,5.478,1.284,8.38c-0.032,0.301-0.079,0.663-0.262,0.872
			c-1.158,1.327-2.761,1.326-4.285,1.146c-1.293-0.153-2.995,0.02-3.196-1.963c-0.094-0.925-0.554-1.28-1.375-1.035
			c-1.547,0.463-3.149,0.854-4.575,1.578c-1.44,0.729-1.451,1.959,0.054,2.548c2.279,0.891,4.712,1.406,7.107,1.968
			c0.808,0.188,1.696,0.03,2.546,0.03C176.973,130.782,176.986,130.892,177.001,131z M177.509,121.808
			c-2.716,0.062-2.958,0.255-2.946,2.339c0.011,1.796,0.838,2.407,3.117,2.308c1.84-0.079,2.154-0.457,2.084-2.494
			C179.688,121.837,179.607,121.761,177.509,121.808z M176.727,120.086c0.959-0.111,2.166,0.226,2.301-1.271
			c0.096-1.026-1.084-2.427-2.021-2.5c-1.042-0.08-2.234,1.239-2.24,2.504C174.758,120.274,175.875,119.983,176.727,120.086z"/>
		<path fill="#FFFFFF" d="M322.021,157.177c-0.374,6.304-1.043,11.837-3.712,17.003c-1.8,3.484-4.432,6.226-7.44,8.475
			c-6.539,4.886-13.896,7.635-22.223,7.489c-7.379-0.129-13.817-2.912-19.986-6.625c-8.551-5.149-14.271-12.729-17.305-21.993
			c-2.371-7.241-3.424-14.797-1.713-22.598c2.721-12.393,10.213-19.797,22.332-22.756c5.032-1.23,10.127-1.046,15.192-0.104
			c2.123,0.395,4.237,0.854,6.331,1.384c4.755,1.206,8.747,3.862,12.464,6.912c8.084,6.634,13.043,15.204,15.165,25.395
			C321.675,152.394,321.782,155.118,322.021,157.177z M256.965,137.977c-2.326,0.242-3.018-0.221-2.951-2.545
			c0.033-1.211,0.221-2.418,0.336-3.627c-0.654,0.532-1.078,1.157-1.324,1.844c-2.143,6.003-3.008,12.162-2.035,18.5
			c0.232,1.516,0.72,2.998,1.164,4.471c0.095,0.312,0.517,0.525,0.787,0.783c0.299-0.316,0.74-0.586,0.863-0.961
			c0.188-0.572,0.204-1.218,0.207-1.833c0.006-1.629-0.047-3.258-0.053-4.886c-0.016-4.1,0.08-4.181,3.927-5.773
			c1.349-0.558,2.694-1.194,3.894-2.012c1.312-0.897,1.539-3.216,0.654-4.629c-0.717-1.145-1.713-1.184-3.658-0.121
			C258.579,137.295,257.836,137.886,256.965,137.977z M320.759,157.604c-0.595-4.554-1.147-9.207-2.793-13.703
			c-2.851-7.8-7.658-14.041-14.102-19.2c-5.667-4.538-12.276-6.423-19.257-7.475c-8.918-1.345-16.881,0.916-24.07,6.251
			c-2.694,2-4.936,4.13-4.521,7.938c0.127,1.189-0.406,2.434-0.504,3.664c-0.1,1.271,0.309,1.522,1.524,1.057
			c0.866-0.333,1.684-0.817,2.567-1.074c1.642-0.478,3.434-0.069,3.989,1.063c1.247,2.545,1.712,5.868-1.608,7.639
			c-1.435,0.764-2.879,1.529-4.387,2.122c-1.578,0.623-2.289,1.585-2.195,3.329c0.123,2.242,0.037,4.497,0.039,6.747
			c0,1.494-0.299,2.793-2.019,3.221c-0.897,0.224-1.012,0.784-0.688,1.598c2.195,5.52,5.057,10.633,9.11,15.021
			c4.466,4.833,10.103,7.896,16.005,10.542c4.043,1.814,8.381,2.371,12.719,2.215c7.193-0.257,13.584-3.043,19.273-7.312
			c2.144-1.604,4.129-3.563,5.737-5.701C319.523,170.31,320.117,163.998,320.759,157.604z"/>
		<path fill="#FFFFFF" d="M176.736,90.367c1.055-0.038,2.13,0.943,2.199,2.006c0.076,1.159-1.009,2.283-2.174,2.255
			c-1.074-0.025-2.085-1.047-2.093-2.115C174.662,91.464,175.68,90.407,176.736,90.367z"/>
		<path fill="#FFFFFF" d="M165.447,102.769c-0.03,1.158-1.173,2.197-2.31,2.101c-1.048-0.09-2.007-1.154-1.983-2.202
			c0.027-1.156,1.169-2.188,2.315-2.091C164.545,100.667,165.475,101.699,165.447,102.769z"/>
		<path fill="#FFFFFF" d="M259.016,138.352c0.944-0.291,2.283,0.247,2.397,1.705c0.103,1.304-0.765,2.112-1.935,2.145
			c-1.181,0.033-2.09-0.74-2.01-2.021C257.523,139.311,258.24,138.591,259.016,138.352z"/>
	</g>
</g>
</svg>
