<?xml version="1.0" encoding="utf-8"?>
<!-- Generator: Adobe Illustrator 16.0.0, SVG Export Plug-In . SVG Version: 6.00 Build 0)  -->
<!DOCTYPE svg PUBLIC "-//W3C//DTD SVG 1.1//EN" "http://www.w3.org/Graphics/SVG/1.1/DTD/svg11.dtd">
<svg version="1.1" id="Layer_1" xmlns="http://www.w3.org/2000/svg" xmlns:xlink="http://www.w3.org/1999/xlink" x="0px" y="0px"
	 width="566.93px" height="566.93px" viewBox="0 0 566.93 566.93" enable-background="new 0 0 566.93 566.93" xml:space="preserve">
<g id="Layer_2">
</g>
<g id="Layer_1_1_">
	<path fill="#FFFFFF" d="M424.104,283.465c0,38.836-15.741,73.996-41.192,99.446l-99.446,91.192l-99.443-91.189
		c-25.453-25.451-41.194-60.611-41.194-99.449c0-77.673,62.966-140.639,140.639-140.639
		C361.138,142.826,424.104,205.792,424.104,283.465z M283.465,151.93c-72.646,0-131.535,58.891-131.535,131.535
		C151.93,356.109,210.82,415,283.465,415C356.11,415,415,356.109,415,283.465C415,210.821,356.11,151.93,283.465,151.93z"/>
	<g>
		<path fill="#FFFFFF" d="M375.328,338.113h-12.17v-58.897c0-1.626-1.324-2.944-2.942-2.944h-1.576v-7.004
			c0-1.627-1.323-2.943-2.942-2.943h-0.471v-61.769c0-1.626-1.325-2.943-2.943-2.943h-8.5c-1.626,0-2.942,1.317-2.942,2.943v61.768
			h-0.463c-1.627,0-2.944,1.317-2.944,2.944v7.004h-2.186v-7.004c0-1.627-1.324-2.944-2.942-2.944h-0.471v-39.007
			c0-1.627-1.325-2.943-2.944-2.943h-8.498c-1.628,0-2.944,1.316-2.944,2.943v39.007h-0.463c-1.626,0-2.942,1.317-2.942,2.944v7.004
			h-3.577l-0.052-36.631c-0.008-1.008-0.521-1.949-1.376-2.486c-0.86-0.545-1.936-0.596-2.833-0.169l-44.335,21.001v-18.346
			c0-1.015-0.522-1.956-1.384-2.494c-0.86-0.537-1.936-0.604-2.847-0.154l-52.209,25.277c-1.016,0.492-1.663,1.523-1.663,2.648
			v73.195h-12.164c-1.626,0-2.942,1.324-2.942,2.943c0,1.617,1.316,2.942,2.942,2.942H375.33c1.628,0,2.944-1.325,2.944-2.942
			C378.273,339.438,376.955,338.113,375.328,338.113z M346.719,207.499h2.604v58.824h-2.604V207.499z M343.305,272.21h9.44v4.062
			h-9.44V272.21z M323.304,230.252h2.604v36.064h-2.604V230.252z M319.889,272.21h9.44v4.062h-9.44V272.21L319.889,272.21z
			 M209.652,266.758l46.293-22.422v18.301c0,1.008,0.516,1.949,1.368,2.487c0.847,0.545,1.92,0.604,2.833,0.169l44.342-21.001
			l0.053,34.924c0.008,1.626,1.323,2.936,2.942,2.936h49.788v55.956h-13.901V322.3c0-1.627-1.323-2.944-2.941-2.944H329.03
			c-1.627,0-2.943,1.326-2.943,2.944v15.808H209.652V266.758z M337.477,338.113h-5.505v-12.862h5.505V338.113z"/>
		<path fill="#FFFFFF" d="M227.938,294.426c-1.626,0-2.943,1.317-2.943,2.943v13.334c0,1.625,1.317,2.941,2.943,2.941
			s2.943-1.324,2.943-2.941v-13.334C230.881,295.743,229.564,294.426,227.938,294.426z"/>
		<path fill="#FFFFFF" d="M238.52,294.426c-1.626,0-2.942,1.317-2.942,2.943v13.334c0,1.625,1.316,2.941,2.942,2.941
			s2.944-1.324,2.944-2.941v-13.334C241.463,295.743,240.146,294.426,238.52,294.426z"/>
		<path fill="#FFFFFF" d="M249.094,294.426c-1.626,0-2.943,1.317-2.943,2.943v13.334c0,1.625,1.317,2.941,2.943,2.941
			s2.944-1.324,2.944-2.941v-13.334C252.038,295.743,250.72,294.426,249.094,294.426z"/>
		<path fill="#FFFFFF" d="M259.675,294.426c-1.625,0-2.943,1.317-2.943,2.943v13.334c0,1.625,1.317,2.941,2.943,2.941
			c1.627,0,2.944-1.324,2.944-2.941v-13.334C262.619,295.743,261.302,294.426,259.675,294.426z"/>
		<path fill="#FFFFFF" d="M270.25,294.426c-1.626,0-2.943,1.317-2.943,2.943v13.334c0,1.625,1.317,2.941,2.943,2.941
			s2.942-1.324,2.942-2.941v-13.334C273.193,295.743,271.875,294.426,270.25,294.426z"/>
		<path fill="#FFFFFF" d="M319.463,294.426c-1.626,0-2.943,1.317-2.943,2.943v13.334c0,1.625,1.323,2.941,2.943,2.941
			c1.618,0,2.942-1.324,2.942-2.941v-13.334C322.406,295.743,321.091,294.426,319.463,294.426z"/>
		<path fill="#FFFFFF" d="M330.957,313.646c1.628,0,2.942-1.324,2.942-2.942V297.37c0-1.626-1.324-2.943-2.942-2.943
			c-1.617,0-2.943,1.317-2.943,2.943v13.334C328.013,312.328,329.339,313.646,330.957,313.646z"/>
		<path fill="#FFFFFF" d="M342.457,313.646c1.627,0,2.943-1.324,2.943-2.942V297.37c0-1.626-1.324-2.943-2.943-2.943
			c-1.618,0-2.943,1.317-2.943,2.943v13.334C339.508,312.328,340.831,313.646,342.457,313.646z"/>
	</g>
</g>
</svg>
