<?xml version="1.0" encoding="utf-8"?>
<!-- Generator: Adobe Illustrator 19.0.0, SVG Export Plug-In . SVG Version: 6.00 Build 0)  -->
<svg version="1.1" id="Livello_1" xmlns="http://www.w3.org/2000/svg" xmlns:xlink="http://www.w3.org/1999/xlink" x="0px" y="0px"
	 viewBox="-33.3 179.7 119.7 67.4" style="enable-background:new -33.3 179.7 119.7 67.4;" xml:space="preserve">
<style type="text/css">
	.st0{fill:#FFFFFF;}
	.st1{opacity:0.6;}
</style>
<g id="XMLID_64_">
	<path id="XMLID_71_" class="st0" d="M-32.9,179.7h8.7V203c0,3.7,0.1,6.1,0.3,7.2c0.4,1.8,1.3,3.2,2.6,4.2c1.4,1.1,3.3,1.6,5.7,1.6
		c2.5,0,4.3-0.5,5.6-1.5s2-2.2,2.3-3.7c0.3-1.5,0.4-3.9,0.4-7.3v-23.7h8.7v22.5c0,5.2-0.2,8.8-0.7,10.9c-0.5,2.1-1.3,3.9-2.6,5.4
		s-2.9,2.6-5,3.5s-4.9,1.3-8.3,1.3c-4.1,0-7.2-0.5-9.3-1.4s-3.8-2.2-5-3.7c-1.2-1.5-2-3.1-2.4-4.8c-0.6-2.5-0.8-6.1-0.8-10.9V179.7z
		"/>
	<path id="XMLID_73_" class="st0" d="M6.1,222.6l14.7-22.4L7.4,179.7h10.1l8.6,13.8l8.4-13.8h10l-13.3,20.8L46,222.6H35.5L26,207.8
		l-9.5,14.8H6.1z"/>
	<path id="XMLID_75_" class="st0" d="M50.4,179.7h15.8c3.6,0,6.3,0.3,8.2,0.8c2.5,0.7,4.7,2.1,6.5,4c1.8,1.9,3.2,4.2,4.1,6.9
		c0.9,2.7,1.4,6.1,1.4,10.1c0,3.5-0.4,6.6-1.3,9.1c-1.1,3.1-2.6,5.6-4.6,7.6c-1.5,1.5-3.5,2.6-6.1,3.4c-1.9,0.6-4.5,0.9-7.7,0.9
		H50.4V179.7z M59,187v28.4h6.5c2.4,0,4.2-0.1,5.2-0.4c1.4-0.4,2.6-0.9,3.5-1.8c0.9-0.8,1.7-2.2,2.3-4.1c0.6-1.9,0.9-4.5,0.9-7.9
		c0-3.3-0.3-5.9-0.9-7.6c-0.6-1.8-1.4-3.2-2.5-4.2c-1.1-1-2.4-1.7-4-2c-1.2-0.3-3.6-0.4-7.1-0.4H59z"/>
</g>
<g id="XMLID_67_" class="st1">
	<path id="XMLID_68_" class="st0" d="M-31.7,246.7V230h6.3c1.1,0,2,0.1,2.5,0.2c0.8,0.1,1.5,0.4,2.1,0.8c0.6,0.4,1,0.9,1.3,1.6
		c0.3,0.7,0.5,1.4,0.5,2.3c0,1.4-0.5,2.6-1.4,3.6c-0.9,1-2.5,1.5-4.9,1.5h-4.3v6.8H-31.7z M-29.5,238h4.3c1.4,0,2.4-0.3,3-0.8
		c0.6-0.5,0.9-1.3,0.9-2.2c0-0.7-0.2-1.3-0.5-1.8c-0.4-0.5-0.8-0.8-1.4-1c-0.4-0.1-1.1-0.1-2.1-0.1h-4.3V238z"/>
	<path id="XMLID_81_" class="st0" d="M-10,238.6c0-2.8,0.7-4.9,2.2-6.5c1.5-1.6,3.4-2.3,5.8-2.3c1.5,0,2.9,0.4,4.2,1.1
		c1.2,0.7,2.2,1.8,2.8,3.1c0.6,1.3,1,2.8,1,4.5c0,1.7-0.3,3.2-1,4.5c-0.7,1.3-1.7,2.3-2.9,3c-1.3,0.7-2.6,1-4.1,1
		c-1.6,0-3-0.4-4.2-1.1c-1.2-0.8-2.2-1.8-2.8-3.1C-9.6,241.4-10,240.1-10,238.6z M-7.7,238.6c0,2,0.5,3.6,1.6,4.8
		c1.1,1.2,2.4,1.7,4.1,1.7c1.7,0,3-0.6,4.1-1.8c1.1-1.2,1.6-2.8,1.6-5c0-1.4-0.2-2.5-0.7-3.6c-0.5-1-1.1-1.8-2-2.4
		c-0.9-0.6-1.9-0.8-3-0.8c-1.6,0-2.9,0.5-4,1.6C-7.1,234.3-7.7,236.1-7.7,238.6z"/>
	<path id="XMLID_84_" class="st0" d="M15.6,246.7V230h2.2v14.7H26v2H15.6z"/>
	<path id="XMLID_86_" class="st0" d="M35.8,246.7V230h2.2v16.7H35.8z"/>
	<path id="XMLID_88_" class="st0" d="M53,246.7V232h-5.5v-2h13.2v2h-5.5v14.7H53z"/>
	<path id="XMLID_114_" class="st0" d="M68.8,238.6c0-2.8,0.7-4.9,2.2-6.5c1.5-1.6,3.4-2.3,5.8-2.3c1.5,0,2.9,0.4,4.2,1.1
		c1.2,0.7,2.2,1.8,2.8,3.1c0.6,1.3,1,2.8,1,4.5c0,1.7-0.3,3.2-1,4.5c-0.7,1.3-1.7,2.3-2.9,3c-1.3,0.7-2.6,1-4.1,1
		c-1.6,0-3-0.4-4.2-1.1c-1.2-0.8-2.2-1.8-2.8-3.1C69.1,241.4,68.8,240.1,68.8,238.6z M71,238.6c0,2,0.5,3.6,1.6,4.8
		c1.1,1.2,2.4,1.7,4.1,1.7c1.7,0,3-0.6,4.1-1.8c1.1-1.2,1.6-2.8,1.6-5c0-1.4-0.2-2.5-0.7-3.6c-0.5-1-1.1-1.8-2-2.4
		c-0.9-0.6-1.9-0.8-3-0.8c-1.6,0-2.9,0.5-4,1.6C71.6,234.3,71,236.1,71,238.6z"/>
</g>
</svg>
